<?xml version="1.0" encoding="utf-8"?>
<!-- Svg Vector Icons : http://www.onlinewebfonts.com/icon -->
<!DOCTYPE svg PUBLIC "-//W3C//DTD SVG 1.1//EN" "http://www.w3.org/Graphics/SVG/1.1/DTD/svg11.dtd">
<svg version="1.1" xmlns="http://www.w3.org/2000/svg" xmlns:xlink="http://www.w3.org/1999/xlink" x="0px" y="0px" viewBox="0 0 1000 1000" enable-background="new 0 0 1000 1000" xml:space="preserve">
<metadata> Svg Vector Icons : http://www.onlinewebfonts.com/icon </metadata>
<g><path d="M477,980.5c6.4,6.3,14.6,9.5,23,9.5c8.3,0,16.6-3.2,23-9.5L980.5,523c12.7-12.7,12.7-33.2,0-45.9L523,19.5c-6.3-6.3-14.6-9.5-23-9.5c-8.3,0-16.6,3.2-23,9.5L19.5,477c-12.7,12.7-12.7,33.2,0,45.9L477,980.5L477,980.5z M500,111.4L888.6,500L500,888.6L111.4,500L500,111.4z"/></g>
</svg>