<?xml version="1.0" encoding="UTF-8" standalone="no"?>
<!-- Created with Inkscape (http://www.inkscape.org/) -->
<svg
   xmlns:svg="http://www.w3.org/2000/svg"
   xmlns="http://www.w3.org/2000/svg"
   version="1.0"
   width="262"
   height="262"
   id="svg2"
   style="display:inline">
  <defs
     id="defs4" />
  <g
     transform="translate(-239.57489,-396.03564)"
     id="layer2">
    <path
       d="M 355.85233,497.83249 A 12.532906,12.532906 0 1 1 355.85233,497.83249 A 12.532906,12.532906 0 1 1 355.85233,497.83249 z"
       id="path3240"
       style="opacity:0.9800001;fill:#0002c8;fill-opacity:1;fill-rule:nonzero;stroke:#ff0000;stroke-width:1.20000005;stroke-linecap:round;stroke-linejoin:round;stroke-miterlimit:4;stroke-dasharray:none;stroke-dashoffset:0;stroke-opacity:1" />
    <g
       transform="translate(1.3199031,1.1810384)"
       id="g3258">
      <path
         d="M 369.37219,400.20115 L 335.14976,492.1303 M 403.58797,492.1303 L 369.37219,400.20115 M 243.22145,526.34875 L 335.1506,560.57118 M 335.1506,492.13297 L 243.22145,526.34875 M 369.36896,652.49837 L 403.59139,560.56922 M 335.15318,560.56922 L 369.36896,652.49837 M 495.5197,526.35077 L 403.59055,492.12834 M 403.59055,560.56655 L 495.5197,526.35077"
         id="path2454"
         style="opacity:0.9800001;fill:none;fill-rule:evenodd;stroke:#000000;stroke-width:1.20000005;stroke-linecap:round;stroke-linejoin:round;stroke-miterlimit:4;stroke-dasharray:none;stroke-opacity:1" />
      <path
         d="M 332.84109,480.16315 A 19.518459,19.518459 0 1 1 293.80417,480.16315 A 19.518459,19.518459 0 1 1 332.84109,480.16315 z"
         transform="matrix(0.178928,0,0,0.178928,279.11599,405.80551)"
         id="path3242"
         style="opacity:0.9800001;fill:#0000ff;fill-opacity:1;fill-rule:nonzero;stroke:#000000;stroke-width:1;stroke-linecap:round;stroke-linejoin:round;stroke-miterlimit:4;stroke-dasharray:none;stroke-dashoffset:0;stroke-opacity:1" />
      <path
         d="M 332.84109,480.16315 A 19.518459,19.518459 0 1 1 293.80417,480.16315 A 19.518459,19.518459 0 1 1 332.84109,480.16315 z"
         transform="matrix(0.178928,0,0,0.178928,279.11599,474.81879)"
         id="path3244"
         style="opacity:0.9800001;fill:#0000ff;fill-opacity:1;fill-rule:nonzero;stroke:#000000;stroke-width:1;stroke-linecap:round;stroke-linejoin:round;stroke-miterlimit:4;stroke-dasharray:none;stroke-dashoffset:0;stroke-opacity:1" />
      <path
         d="M 332.84109,480.16315 A 19.518459,19.518459 0 1 1 293.80417,480.16315 A 19.518459,19.518459 0 1 1 332.84109,480.16315 z"
         transform="matrix(0.178928,0,0,0.178928,347.81723,474.81879)"
         id="path3246"
         style="opacity:0.9800001;fill:#0000ff;fill-opacity:1;fill-rule:nonzero;stroke:#000000;stroke-width:1;stroke-linecap:round;stroke-linejoin:round;stroke-miterlimit:4;stroke-dasharray:none;stroke-dashoffset:0;stroke-opacity:1" />
      <path
         d="M 332.84109,480.16315 A 19.518459,19.518459 0 1 1 293.80417,480.16315 A 19.518459,19.518459 0 1 1 332.84109,480.16315 z"
         transform="matrix(0.178928,0,0,0.178928,347.81723,405.80551)"
         id="path3248"
         style="opacity:1;fill:#0000ff;fill-opacity:1;fill-rule:nonzero;stroke:#000000;stroke-width:1;stroke-linecap:round;stroke-linejoin:round;stroke-miterlimit:4;stroke-dasharray:none;stroke-dashoffset:0;stroke-opacity:1" />
      <path
         d="M 332.84109,480.16315 A 19.518459,19.518459 0 1 1 293.80417,480.16315 A 19.518459,19.518459 0 1 1 332.84109,480.16315 z"
         transform="matrix(0.178928,0,0,0.178928,313.30838,313.70287)"
         id="path3250"
         style="opacity:1;fill:#e60000;fill-opacity:1;fill-rule:nonzero;stroke:#000000;stroke-width:1;stroke-linecap:round;stroke-linejoin:round;stroke-miterlimit:4;stroke-dasharray:none;stroke-dashoffset:0;stroke-opacity:1" />
      <path
         d="M 332.84109,480.16315 A 19.518459,19.518459 0 1 1 293.80417,480.16315 A 19.518459,19.518459 0 1 1 332.84109,480.16315 z"
         transform="matrix(0.178928,0,0,0.178928,313.30838,566.17707)"
         id="path3252"
         style="opacity:1;fill:#e60000;fill-opacity:1;fill-rule:nonzero;stroke:#000000;stroke-width:1;stroke-linecap:round;stroke-linejoin:round;stroke-miterlimit:4;stroke-dasharray:none;stroke-dashoffset:0;stroke-opacity:1" />
      <path
         d="M 332.84109,480.16315 A 19.518459,19.518459 0 1 1 293.80417,480.16315 A 19.518459,19.518459 0 1 1 332.84109,480.16315 z"
         transform="matrix(0.178928,0,0,0.178928,439.29103,440.43513)"
         id="path3254"
         style="opacity:1;fill:#e60000;fill-opacity:1;fill-rule:nonzero;stroke:#000000;stroke-width:1;stroke-linecap:round;stroke-linejoin:round;stroke-miterlimit:4;stroke-dasharray:none;stroke-dashoffset:0;stroke-opacity:1" />
      <path
         d="M 332.84109,480.16315 A 19.518459,19.518459 0 1 1 293.80417,480.16315 A 19.518459,19.518459 0 1 1 332.84109,480.16315 z"
         transform="matrix(0.178928,0,0,0.178928,187.09456,440.43513)"
         id="path3256"
         style="opacity:1;fill:#e60000;fill-opacity:1;fill-rule:nonzero;stroke:#000000;stroke-width:1;stroke-linecap:round;stroke-linejoin:round;stroke-miterlimit:4;stroke-dasharray:none;stroke-dashoffset:0;stroke-opacity:1" />
    </g>
  </g>
</svg>
